<mxfile host="app.diagrams.net" modified="2021-05-08T16:50:43.858Z" agent="5.0 (X11)" etag="JY8Gb7ROJPEI0Mh_5zKg" version="14.6.11" type="github">
  <diagram id="75dPjm92f2IvRjKOl9X8" name="Page-1">
    <mxGraphModel dx="1350" dy="804" grid="1" gridSize="10" guides="1" tooltips="1" connect="1" arrows="1" fold="1" page="1" pageScale="1" pageWidth="850" pageHeight="1100" math="0" shadow="0">
      <root>
        <mxCell id="0" />
        <mxCell id="1" parent="0" />
        <mxCell id="PwbdBzScDT-NYEQdXH_i-1" value="" style="ellipse;whiteSpace=wrap;html=1;aspect=fixed;" vertex="1" parent="1">
          <mxGeometry x="90" y="280" width="40" height="40" as="geometry" />
        </mxCell>
        <mxCell id="PwbdBzScDT-NYEQdXH_i-7" value="" style="ellipse;whiteSpace=wrap;html=1;aspect=fixed;" vertex="1" parent="1">
          <mxGeometry x="90" y="200" width="40" height="40" as="geometry" />
        </mxCell>
        <mxCell id="PwbdBzScDT-NYEQdXH_i-8" value="" style="ellipse;whiteSpace=wrap;html=1;aspect=fixed;" vertex="1" parent="1">
          <mxGeometry x="90" y="440" width="40" height="40" as="geometry" />
        </mxCell>
        <mxCell id="PwbdBzScDT-NYEQdXH_i-9" value="" style="ellipse;whiteSpace=wrap;html=1;aspect=fixed;" vertex="1" parent="1">
          <mxGeometry x="90" y="520" width="40" height="40" as="geometry" />
        </mxCell>
        <mxCell id="PwbdBzScDT-NYEQdXH_i-10" value="" style="endArrow=none;dashed=1;html=1;dashPattern=1 3;strokeWidth=2;" edge="1" parent="1">
          <mxGeometry width="50" height="50" relative="1" as="geometry">
            <mxPoint x="109.5" y="420" as="sourcePoint" />
            <mxPoint x="109.5" y="340" as="targetPoint" />
          </mxGeometry>
        </mxCell>
        <mxCell id="PwbdBzScDT-NYEQdXH_i-12" value="" style="ellipse;whiteSpace=wrap;html=1;aspect=fixed;" vertex="1" parent="1">
          <mxGeometry x="250" y="160" width="40" height="40" as="geometry" />
        </mxCell>
        <mxCell id="PwbdBzScDT-NYEQdXH_i-13" value="" style="ellipse;whiteSpace=wrap;html=1;aspect=fixed;" vertex="1" parent="1">
          <mxGeometry x="250" y="240" width="40" height="40" as="geometry" />
        </mxCell>
        <mxCell id="PwbdBzScDT-NYEQdXH_i-14" value="" style="ellipse;whiteSpace=wrap;html=1;aspect=fixed;" vertex="1" parent="1">
          <mxGeometry x="250" y="320" width="40" height="40" as="geometry" />
        </mxCell>
        <mxCell id="PwbdBzScDT-NYEQdXH_i-15" value="" style="ellipse;whiteSpace=wrap;html=1;aspect=fixed;" vertex="1" parent="1">
          <mxGeometry x="250" y="400" width="40" height="40" as="geometry" />
        </mxCell>
        <mxCell id="PwbdBzScDT-NYEQdXH_i-16" value="" style="ellipse;whiteSpace=wrap;html=1;aspect=fixed;" vertex="1" parent="1">
          <mxGeometry x="250" y="480" width="40" height="40" as="geometry" />
        </mxCell>
        <mxCell id="PwbdBzScDT-NYEQdXH_i-17" value="" style="ellipse;whiteSpace=wrap;html=1;aspect=fixed;" vertex="1" parent="1">
          <mxGeometry x="250" y="560" width="40" height="40" as="geometry" />
        </mxCell>
        <mxCell id="PwbdBzScDT-NYEQdXH_i-18" value="" style="endArrow=none;dashed=1;html=1;dashPattern=1 3;strokeWidth=2;" edge="1" parent="1">
          <mxGeometry width="50" height="50" relative="1" as="geometry">
            <mxPoint x="269.5" y="396" as="sourcePoint" />
            <mxPoint x="269.5" y="366" as="targetPoint" />
          </mxGeometry>
        </mxCell>
        <mxCell id="PwbdBzScDT-NYEQdXH_i-19" value="" style="endArrow=none;html=1;exitX=1;exitY=0.5;exitDx=0;exitDy=0;entryX=0;entryY=0.5;entryDx=0;entryDy=0;" edge="1" parent="1" source="PwbdBzScDT-NYEQdXH_i-7" target="PwbdBzScDT-NYEQdXH_i-12">
          <mxGeometry width="50" height="50" relative="1" as="geometry">
            <mxPoint x="160" y="240" as="sourcePoint" />
            <mxPoint x="210" y="190" as="targetPoint" />
          </mxGeometry>
        </mxCell>
        <mxCell id="PwbdBzScDT-NYEQdXH_i-20" value="" style="endArrow=none;html=1;exitX=1;exitY=0.5;exitDx=0;exitDy=0;entryX=0;entryY=0.5;entryDx=0;entryDy=0;" edge="1" parent="1" source="PwbdBzScDT-NYEQdXH_i-7" target="PwbdBzScDT-NYEQdXH_i-13">
          <mxGeometry width="50" height="50" relative="1" as="geometry">
            <mxPoint x="140" y="230" as="sourcePoint" />
            <mxPoint x="260" y="190" as="targetPoint" />
          </mxGeometry>
        </mxCell>
        <mxCell id="PwbdBzScDT-NYEQdXH_i-21" value="" style="endArrow=none;html=1;exitX=1;exitY=0.5;exitDx=0;exitDy=0;entryX=0;entryY=0.5;entryDx=0;entryDy=0;" edge="1" parent="1" source="PwbdBzScDT-NYEQdXH_i-7" target="PwbdBzScDT-NYEQdXH_i-14">
          <mxGeometry width="50" height="50" relative="1" as="geometry">
            <mxPoint x="140" y="230" as="sourcePoint" />
            <mxPoint x="260" y="270" as="targetPoint" />
          </mxGeometry>
        </mxCell>
        <mxCell id="PwbdBzScDT-NYEQdXH_i-22" value="" style="endArrow=none;html=1;exitX=1;exitY=0.5;exitDx=0;exitDy=0;entryX=0;entryY=0.5;entryDx=0;entryDy=0;" edge="1" parent="1" source="PwbdBzScDT-NYEQdXH_i-7" target="PwbdBzScDT-NYEQdXH_i-15">
          <mxGeometry width="50" height="50" relative="1" as="geometry">
            <mxPoint x="140" y="230" as="sourcePoint" />
            <mxPoint x="260" y="350" as="targetPoint" />
          </mxGeometry>
        </mxCell>
        <mxCell id="PwbdBzScDT-NYEQdXH_i-23" value="" style="endArrow=none;html=1;exitX=1;exitY=0.5;exitDx=0;exitDy=0;entryX=0;entryY=0.5;entryDx=0;entryDy=0;" edge="1" parent="1" source="PwbdBzScDT-NYEQdXH_i-7" target="PwbdBzScDT-NYEQdXH_i-16">
          <mxGeometry width="50" height="50" relative="1" as="geometry">
            <mxPoint x="140" y="230" as="sourcePoint" />
            <mxPoint x="260" y="430" as="targetPoint" />
          </mxGeometry>
        </mxCell>
        <mxCell id="PwbdBzScDT-NYEQdXH_i-24" value="" style="endArrow=none;html=1;exitX=1;exitY=0.5;exitDx=0;exitDy=0;entryX=0;entryY=0.5;entryDx=0;entryDy=0;" edge="1" parent="1" source="PwbdBzScDT-NYEQdXH_i-7" target="PwbdBzScDT-NYEQdXH_i-17">
          <mxGeometry width="50" height="50" relative="1" as="geometry">
            <mxPoint x="140" y="230" as="sourcePoint" />
            <mxPoint x="260" y="510" as="targetPoint" />
          </mxGeometry>
        </mxCell>
        <mxCell id="PwbdBzScDT-NYEQdXH_i-25" value="" style="endArrow=none;html=1;exitX=1;exitY=0.5;exitDx=0;exitDy=0;entryX=0;entryY=0.5;entryDx=0;entryDy=0;" edge="1" parent="1" source="PwbdBzScDT-NYEQdXH_i-1" target="PwbdBzScDT-NYEQdXH_i-13">
          <mxGeometry width="50" height="50" relative="1" as="geometry">
            <mxPoint x="140" y="230" as="sourcePoint" />
            <mxPoint x="260" y="590" as="targetPoint" />
          </mxGeometry>
        </mxCell>
        <mxCell id="PwbdBzScDT-NYEQdXH_i-26" value="" style="endArrow=none;html=1;exitX=1;exitY=0.5;exitDx=0;exitDy=0;entryX=0;entryY=0.5;entryDx=0;entryDy=0;" edge="1" parent="1" source="PwbdBzScDT-NYEQdXH_i-8" target="PwbdBzScDT-NYEQdXH_i-13">
          <mxGeometry width="50" height="50" relative="1" as="geometry">
            <mxPoint x="140" y="310" as="sourcePoint" />
            <mxPoint x="260" y="270" as="targetPoint" />
          </mxGeometry>
        </mxCell>
        <mxCell id="PwbdBzScDT-NYEQdXH_i-27" value="" style="endArrow=none;html=1;exitX=1;exitY=0.5;exitDx=0;exitDy=0;entryX=0;entryY=0.5;entryDx=0;entryDy=0;" edge="1" parent="1" source="PwbdBzScDT-NYEQdXH_i-9" target="PwbdBzScDT-NYEQdXH_i-13">
          <mxGeometry width="50" height="50" relative="1" as="geometry">
            <mxPoint x="140" y="470" as="sourcePoint" />
            <mxPoint x="260" y="270" as="targetPoint" />
          </mxGeometry>
        </mxCell>
        <mxCell id="PwbdBzScDT-NYEQdXH_i-28" value="" style="endArrow=none;html=1;exitX=1;exitY=0.5;exitDx=0;exitDy=0;entryX=0;entryY=0.5;entryDx=0;entryDy=0;" edge="1" parent="1" source="PwbdBzScDT-NYEQdXH_i-1" target="PwbdBzScDT-NYEQdXH_i-14">
          <mxGeometry width="50" height="50" relative="1" as="geometry">
            <mxPoint x="140" y="550" as="sourcePoint" />
            <mxPoint x="260" y="270" as="targetPoint" />
          </mxGeometry>
        </mxCell>
        <mxCell id="PwbdBzScDT-NYEQdXH_i-29" value="" style="endArrow=none;html=1;exitX=1;exitY=0.5;exitDx=0;exitDy=0;entryX=0;entryY=0.5;entryDx=0;entryDy=0;" edge="1" parent="1" source="PwbdBzScDT-NYEQdXH_i-1" target="PwbdBzScDT-NYEQdXH_i-15">
          <mxGeometry width="50" height="50" relative="1" as="geometry">
            <mxPoint x="140" y="310" as="sourcePoint" />
            <mxPoint x="260" y="350" as="targetPoint" />
          </mxGeometry>
        </mxCell>
        <mxCell id="PwbdBzScDT-NYEQdXH_i-30" value="" style="endArrow=none;html=1;exitX=1;exitY=0.5;exitDx=0;exitDy=0;entryX=0;entryY=0.5;entryDx=0;entryDy=0;" edge="1" parent="1" source="PwbdBzScDT-NYEQdXH_i-1" target="PwbdBzScDT-NYEQdXH_i-16">
          <mxGeometry width="50" height="50" relative="1" as="geometry">
            <mxPoint x="140" y="310" as="sourcePoint" />
            <mxPoint x="260" y="430" as="targetPoint" />
          </mxGeometry>
        </mxCell>
        <mxCell id="PwbdBzScDT-NYEQdXH_i-31" value="" style="endArrow=none;html=1;exitX=1;exitY=0.5;exitDx=0;exitDy=0;entryX=0;entryY=0.5;entryDx=0;entryDy=0;" edge="1" parent="1" source="PwbdBzScDT-NYEQdXH_i-1" target="PwbdBzScDT-NYEQdXH_i-17">
          <mxGeometry width="50" height="50" relative="1" as="geometry">
            <mxPoint x="140" y="310" as="sourcePoint" />
            <mxPoint x="260" y="510" as="targetPoint" />
          </mxGeometry>
        </mxCell>
        <mxCell id="PwbdBzScDT-NYEQdXH_i-32" value="" style="endArrow=none;html=1;exitX=1;exitY=0.5;exitDx=0;exitDy=0;entryX=0;entryY=0.5;entryDx=0;entryDy=0;" edge="1" parent="1" source="PwbdBzScDT-NYEQdXH_i-8" target="PwbdBzScDT-NYEQdXH_i-14">
          <mxGeometry width="50" height="50" relative="1" as="geometry">
            <mxPoint x="140" y="310" as="sourcePoint" />
            <mxPoint x="260" y="590" as="targetPoint" />
          </mxGeometry>
        </mxCell>
        <mxCell id="PwbdBzScDT-NYEQdXH_i-33" value="" style="endArrow=none;html=1;exitX=1;exitY=0.5;exitDx=0;exitDy=0;entryX=0;entryY=0.5;entryDx=0;entryDy=0;" edge="1" parent="1" source="PwbdBzScDT-NYEQdXH_i-9" target="PwbdBzScDT-NYEQdXH_i-14">
          <mxGeometry width="50" height="50" relative="1" as="geometry">
            <mxPoint x="140" y="470" as="sourcePoint" />
            <mxPoint x="260" y="350" as="targetPoint" />
          </mxGeometry>
        </mxCell>
        <mxCell id="PwbdBzScDT-NYEQdXH_i-34" value="" style="endArrow=none;html=1;exitX=1;exitY=0.5;exitDx=0;exitDy=0;entryX=0;entryY=0.5;entryDx=0;entryDy=0;" edge="1" parent="1" source="PwbdBzScDT-NYEQdXH_i-8" target="PwbdBzScDT-NYEQdXH_i-15">
          <mxGeometry width="50" height="50" relative="1" as="geometry">
            <mxPoint x="140" y="550" as="sourcePoint" />
            <mxPoint x="260" y="350" as="targetPoint" />
          </mxGeometry>
        </mxCell>
        <mxCell id="PwbdBzScDT-NYEQdXH_i-35" value="" style="endArrow=none;html=1;exitX=1;exitY=0.5;exitDx=0;exitDy=0;entryX=0;entryY=0.5;entryDx=0;entryDy=0;" edge="1" parent="1" source="PwbdBzScDT-NYEQdXH_i-8" target="PwbdBzScDT-NYEQdXH_i-16">
          <mxGeometry width="50" height="50" relative="1" as="geometry">
            <mxPoint x="140" y="470" as="sourcePoint" />
            <mxPoint x="260" y="430" as="targetPoint" />
          </mxGeometry>
        </mxCell>
        <mxCell id="PwbdBzScDT-NYEQdXH_i-36" value="" style="endArrow=none;html=1;exitX=1;exitY=0.5;exitDx=0;exitDy=0;entryX=0;entryY=0.5;entryDx=0;entryDy=0;" edge="1" parent="1" source="PwbdBzScDT-NYEQdXH_i-8" target="PwbdBzScDT-NYEQdXH_i-17">
          <mxGeometry width="50" height="50" relative="1" as="geometry">
            <mxPoint x="140" y="470" as="sourcePoint" />
            <mxPoint x="260" y="510" as="targetPoint" />
          </mxGeometry>
        </mxCell>
        <mxCell id="PwbdBzScDT-NYEQdXH_i-37" value="" style="endArrow=none;html=1;exitX=1;exitY=0.5;exitDx=0;exitDy=0;entryX=0;entryY=0.5;entryDx=0;entryDy=0;" edge="1" parent="1" source="PwbdBzScDT-NYEQdXH_i-9" target="PwbdBzScDT-NYEQdXH_i-15">
          <mxGeometry width="50" height="50" relative="1" as="geometry">
            <mxPoint x="140" y="470" as="sourcePoint" />
            <mxPoint x="260" y="590" as="targetPoint" />
          </mxGeometry>
        </mxCell>
        <mxCell id="PwbdBzScDT-NYEQdXH_i-38" value="" style="endArrow=none;html=1;exitX=1;exitY=0.5;exitDx=0;exitDy=0;entryX=0;entryY=0.5;entryDx=0;entryDy=0;" edge="1" parent="1" source="PwbdBzScDT-NYEQdXH_i-9" target="PwbdBzScDT-NYEQdXH_i-16">
          <mxGeometry width="50" height="50" relative="1" as="geometry">
            <mxPoint x="140" y="550" as="sourcePoint" />
            <mxPoint x="260" y="430" as="targetPoint" />
          </mxGeometry>
        </mxCell>
        <mxCell id="PwbdBzScDT-NYEQdXH_i-39" value="" style="endArrow=none;html=1;exitX=1;exitY=0.5;exitDx=0;exitDy=0;entryX=0;entryY=0.5;entryDx=0;entryDy=0;" edge="1" parent="1" source="PwbdBzScDT-NYEQdXH_i-9" target="PwbdBzScDT-NYEQdXH_i-17">
          <mxGeometry width="50" height="50" relative="1" as="geometry">
            <mxPoint x="140" y="550" as="sourcePoint" />
            <mxPoint x="260" y="510" as="targetPoint" />
          </mxGeometry>
        </mxCell>
        <mxCell id="PwbdBzScDT-NYEQdXH_i-40" value="" style="endArrow=none;html=1;entryX=0;entryY=0.5;entryDx=0;entryDy=0;exitX=1;exitY=0.5;exitDx=0;exitDy=0;" edge="1" parent="1" source="PwbdBzScDT-NYEQdXH_i-1" target="PwbdBzScDT-NYEQdXH_i-12">
          <mxGeometry width="50" height="50" relative="1" as="geometry">
            <mxPoint x="210" y="230" as="sourcePoint" />
            <mxPoint x="260" y="190" as="targetPoint" />
          </mxGeometry>
        </mxCell>
        <mxCell id="PwbdBzScDT-NYEQdXH_i-41" value="" style="endArrow=none;html=1;entryX=0;entryY=0.5;entryDx=0;entryDy=0;exitX=1;exitY=0.5;exitDx=0;exitDy=0;" edge="1" parent="1" source="PwbdBzScDT-NYEQdXH_i-8" target="PwbdBzScDT-NYEQdXH_i-12">
          <mxGeometry width="50" height="50" relative="1" as="geometry">
            <mxPoint x="140" y="310" as="sourcePoint" />
            <mxPoint x="260" y="190" as="targetPoint" />
          </mxGeometry>
        </mxCell>
        <mxCell id="PwbdBzScDT-NYEQdXH_i-42" value="" style="endArrow=none;html=1;entryX=0;entryY=0.5;entryDx=0;entryDy=0;exitX=1;exitY=0.5;exitDx=0;exitDy=0;" edge="1" parent="1" source="PwbdBzScDT-NYEQdXH_i-9" target="PwbdBzScDT-NYEQdXH_i-12">
          <mxGeometry width="50" height="50" relative="1" as="geometry">
            <mxPoint x="140" y="470" as="sourcePoint" />
            <mxPoint x="260" y="190" as="targetPoint" />
          </mxGeometry>
        </mxCell>
        <mxCell id="PwbdBzScDT-NYEQdXH_i-43" value="" style="ellipse;whiteSpace=wrap;html=1;aspect=fixed;" vertex="1" parent="1">
          <mxGeometry x="410" y="360" width="40" height="40" as="geometry" />
        </mxCell>
        <mxCell id="PwbdBzScDT-NYEQdXH_i-44" value="" style="curved=1;endArrow=none;html=1;endFill=0;" edge="1" parent="1">
          <mxGeometry width="50" height="50" relative="1" as="geometry">
            <mxPoint x="260" y="190" as="sourcePoint" />
            <mxPoint x="280" y="170" as="targetPoint" />
            <Array as="points">
              <mxPoint x="270" y="190" />
              <mxPoint x="270" y="170" />
            </Array>
          </mxGeometry>
        </mxCell>
        <mxCell id="PwbdBzScDT-NYEQdXH_i-46" value="" style="curved=1;endArrow=none;html=1;endFill=0;" edge="1" parent="1">
          <mxGeometry width="50" height="50" relative="1" as="geometry">
            <mxPoint x="260" y="270" as="sourcePoint" />
            <mxPoint x="280" y="250" as="targetPoint" />
            <Array as="points">
              <mxPoint x="270" y="270" />
              <mxPoint x="270" y="250" />
            </Array>
          </mxGeometry>
        </mxCell>
        <mxCell id="PwbdBzScDT-NYEQdXH_i-47" value="" style="curved=1;endArrow=none;html=1;endFill=0;" edge="1" parent="1">
          <mxGeometry width="50" height="50" relative="1" as="geometry">
            <mxPoint x="260" y="350" as="sourcePoint" />
            <mxPoint x="280" y="330" as="targetPoint" />
            <Array as="points">
              <mxPoint x="270" y="350" />
              <mxPoint x="270" y="330" />
            </Array>
          </mxGeometry>
        </mxCell>
        <mxCell id="PwbdBzScDT-NYEQdXH_i-48" value="" style="curved=1;endArrow=none;html=1;endFill=0;" edge="1" parent="1">
          <mxGeometry width="50" height="50" relative="1" as="geometry">
            <mxPoint x="260" y="430" as="sourcePoint" />
            <mxPoint x="280" y="410" as="targetPoint" />
            <Array as="points">
              <mxPoint x="270" y="430" />
              <mxPoint x="270" y="410" />
            </Array>
          </mxGeometry>
        </mxCell>
        <mxCell id="PwbdBzScDT-NYEQdXH_i-49" value="" style="curved=1;endArrow=none;html=1;endFill=0;" edge="1" parent="1">
          <mxGeometry width="50" height="50" relative="1" as="geometry">
            <mxPoint x="260" y="510" as="sourcePoint" />
            <mxPoint x="280" y="490" as="targetPoint" />
            <Array as="points">
              <mxPoint x="270" y="510" />
              <mxPoint x="270" y="490" />
            </Array>
          </mxGeometry>
        </mxCell>
        <mxCell id="PwbdBzScDT-NYEQdXH_i-50" value="" style="curved=1;endArrow=none;html=1;endFill=0;" edge="1" parent="1">
          <mxGeometry width="50" height="50" relative="1" as="geometry">
            <mxPoint x="260" y="590" as="sourcePoint" />
            <mxPoint x="280" y="570" as="targetPoint" />
            <Array as="points">
              <mxPoint x="270" y="590" />
              <mxPoint x="270" y="570" />
            </Array>
          </mxGeometry>
        </mxCell>
        <mxCell id="PwbdBzScDT-NYEQdXH_i-51" value="" style="endArrow=none;html=1;entryX=0;entryY=0.5;entryDx=0;entryDy=0;exitX=1;exitY=0.5;exitDx=0;exitDy=0;" edge="1" parent="1" source="PwbdBzScDT-NYEQdXH_i-17" target="PwbdBzScDT-NYEQdXH_i-43">
          <mxGeometry width="50" height="50" relative="1" as="geometry">
            <mxPoint x="370" y="480" as="sourcePoint" />
            <mxPoint x="420" y="430" as="targetPoint" />
          </mxGeometry>
        </mxCell>
        <mxCell id="PwbdBzScDT-NYEQdXH_i-52" value="" style="endArrow=none;html=1;entryX=0;entryY=0.5;entryDx=0;entryDy=0;exitX=1;exitY=0.5;exitDx=0;exitDy=0;" edge="1" parent="1" source="PwbdBzScDT-NYEQdXH_i-16" target="PwbdBzScDT-NYEQdXH_i-43">
          <mxGeometry width="50" height="50" relative="1" as="geometry">
            <mxPoint x="300" y="590" as="sourcePoint" />
            <mxPoint x="420" y="390" as="targetPoint" />
          </mxGeometry>
        </mxCell>
        <mxCell id="PwbdBzScDT-NYEQdXH_i-53" value="" style="endArrow=none;html=1;entryX=0;entryY=0.5;entryDx=0;entryDy=0;exitX=1;exitY=0.5;exitDx=0;exitDy=0;" edge="1" parent="1" source="PwbdBzScDT-NYEQdXH_i-15" target="PwbdBzScDT-NYEQdXH_i-43">
          <mxGeometry width="50" height="50" relative="1" as="geometry">
            <mxPoint x="300" y="510" as="sourcePoint" />
            <mxPoint x="420" y="390" as="targetPoint" />
          </mxGeometry>
        </mxCell>
        <mxCell id="PwbdBzScDT-NYEQdXH_i-54" value="" style="endArrow=none;html=1;entryX=0;entryY=0.5;entryDx=0;entryDy=0;exitX=1;exitY=0.5;exitDx=0;exitDy=0;" edge="1" parent="1" source="PwbdBzScDT-NYEQdXH_i-14" target="PwbdBzScDT-NYEQdXH_i-43">
          <mxGeometry width="50" height="50" relative="1" as="geometry">
            <mxPoint x="300" y="430" as="sourcePoint" />
            <mxPoint x="420" y="390" as="targetPoint" />
          </mxGeometry>
        </mxCell>
        <mxCell id="PwbdBzScDT-NYEQdXH_i-55" value="" style="endArrow=none;html=1;entryX=0;entryY=0.5;entryDx=0;entryDy=0;exitX=1;exitY=0.5;exitDx=0;exitDy=0;" edge="1" parent="1" source="PwbdBzScDT-NYEQdXH_i-13" target="PwbdBzScDT-NYEQdXH_i-43">
          <mxGeometry width="50" height="50" relative="1" as="geometry">
            <mxPoint x="300" y="350" as="sourcePoint" />
            <mxPoint x="420" y="390" as="targetPoint" />
          </mxGeometry>
        </mxCell>
        <mxCell id="PwbdBzScDT-NYEQdXH_i-56" value="" style="endArrow=none;html=1;entryX=0;entryY=0.5;entryDx=0;entryDy=0;exitX=1;exitY=0.5;exitDx=0;exitDy=0;" edge="1" parent="1" source="PwbdBzScDT-NYEQdXH_i-12" target="PwbdBzScDT-NYEQdXH_i-43">
          <mxGeometry width="50" height="50" relative="1" as="geometry">
            <mxPoint x="300" y="270" as="sourcePoint" />
            <mxPoint x="420" y="390" as="targetPoint" />
          </mxGeometry>
        </mxCell>
        <mxCell id="PwbdBzScDT-NYEQdXH_i-57" value="" style="endArrow=none;html=1;exitX=1;exitY=0.5;exitDx=0;exitDy=0;" edge="1" parent="1" source="PwbdBzScDT-NYEQdXH_i-43">
          <mxGeometry width="50" height="50" relative="1" as="geometry">
            <mxPoint x="490" y="390" as="sourcePoint" />
            <mxPoint x="490" y="380" as="targetPoint" />
          </mxGeometry>
        </mxCell>
        <mxCell id="PwbdBzScDT-NYEQdXH_i-58" value="" style="endArrow=none;html=1;entryX=0;entryY=0.5;entryDx=0;entryDy=0;" edge="1" parent="1" target="PwbdBzScDT-NYEQdXH_i-7">
          <mxGeometry width="50" height="50" relative="1" as="geometry">
            <mxPoint x="50" y="220" as="sourcePoint" />
            <mxPoint x="70" y="219.5" as="targetPoint" />
          </mxGeometry>
        </mxCell>
        <mxCell id="PwbdBzScDT-NYEQdXH_i-59" value="" style="endArrow=none;html=1;entryX=0;entryY=0.5;entryDx=0;entryDy=0;" edge="1" parent="1" target="PwbdBzScDT-NYEQdXH_i-1">
          <mxGeometry width="50" height="50" relative="1" as="geometry">
            <mxPoint x="50" y="300" as="sourcePoint" />
            <mxPoint x="80" y="299.5" as="targetPoint" />
          </mxGeometry>
        </mxCell>
        <mxCell id="PwbdBzScDT-NYEQdXH_i-60" value="" style="endArrow=none;html=1;entryX=0;entryY=0.5;entryDx=0;entryDy=0;" edge="1" parent="1" target="PwbdBzScDT-NYEQdXH_i-8">
          <mxGeometry width="50" height="50" relative="1" as="geometry">
            <mxPoint x="50" y="460" as="sourcePoint" />
            <mxPoint x="80" y="459.5" as="targetPoint" />
          </mxGeometry>
        </mxCell>
        <mxCell id="PwbdBzScDT-NYEQdXH_i-61" value="" style="endArrow=none;html=1;entryX=0;entryY=0.5;entryDx=0;entryDy=0;" edge="1" parent="1" target="PwbdBzScDT-NYEQdXH_i-9">
          <mxGeometry width="50" height="50" relative="1" as="geometry">
            <mxPoint x="50" y="540" as="sourcePoint" />
            <mxPoint x="80" y="539.5" as="targetPoint" />
          </mxGeometry>
        </mxCell>
        <mxCell id="PwbdBzScDT-NYEQdXH_i-63" value="" style="ellipse;whiteSpace=wrap;html=1;aspect=fixed;" vertex="1" parent="1">
          <mxGeometry x="410" y="720" width="40" height="40" as="geometry" />
        </mxCell>
        <mxCell id="PwbdBzScDT-NYEQdXH_i-64" value="" style="ellipse;whiteSpace=wrap;html=1;aspect=fixed;" vertex="1" parent="1">
          <mxGeometry x="410" y="640" width="40" height="40" as="geometry" />
        </mxCell>
        <mxCell id="PwbdBzScDT-NYEQdXH_i-65" value="" style="ellipse;whiteSpace=wrap;html=1;aspect=fixed;" vertex="1" parent="1">
          <mxGeometry x="410" y="880" width="40" height="40" as="geometry" />
        </mxCell>
        <mxCell id="PwbdBzScDT-NYEQdXH_i-66" value="" style="ellipse;whiteSpace=wrap;html=1;aspect=fixed;" vertex="1" parent="1">
          <mxGeometry x="410" y="960" width="40" height="40" as="geometry" />
        </mxCell>
        <mxCell id="PwbdBzScDT-NYEQdXH_i-67" value="" style="endArrow=none;dashed=1;html=1;dashPattern=1 3;strokeWidth=2;" edge="1" parent="1">
          <mxGeometry width="50" height="50" relative="1" as="geometry">
            <mxPoint x="429.5" y="860" as="sourcePoint" />
            <mxPoint x="429.5" y="780" as="targetPoint" />
          </mxGeometry>
        </mxCell>
        <mxCell id="PwbdBzScDT-NYEQdXH_i-68" value="" style="ellipse;whiteSpace=wrap;html=1;aspect=fixed;" vertex="1" parent="1">
          <mxGeometry x="570" y="600" width="40" height="40" as="geometry" />
        </mxCell>
        <mxCell id="PwbdBzScDT-NYEQdXH_i-69" value="" style="ellipse;whiteSpace=wrap;html=1;aspect=fixed;" vertex="1" parent="1">
          <mxGeometry x="570" y="680" width="40" height="40" as="geometry" />
        </mxCell>
        <mxCell id="PwbdBzScDT-NYEQdXH_i-70" value="" style="ellipse;whiteSpace=wrap;html=1;aspect=fixed;" vertex="1" parent="1">
          <mxGeometry x="570" y="760" width="40" height="40" as="geometry" />
        </mxCell>
        <mxCell id="PwbdBzScDT-NYEQdXH_i-71" value="" style="ellipse;whiteSpace=wrap;html=1;aspect=fixed;" vertex="1" parent="1">
          <mxGeometry x="570" y="840" width="40" height="40" as="geometry" />
        </mxCell>
        <mxCell id="PwbdBzScDT-NYEQdXH_i-72" value="" style="ellipse;whiteSpace=wrap;html=1;aspect=fixed;" vertex="1" parent="1">
          <mxGeometry x="570" y="920" width="40" height="40" as="geometry" />
        </mxCell>
        <mxCell id="PwbdBzScDT-NYEQdXH_i-73" value="" style="ellipse;whiteSpace=wrap;html=1;aspect=fixed;" vertex="1" parent="1">
          <mxGeometry x="570" y="1000" width="40" height="40" as="geometry" />
        </mxCell>
        <mxCell id="PwbdBzScDT-NYEQdXH_i-74" value="" style="endArrow=none;dashed=1;html=1;dashPattern=1 3;strokeWidth=2;" edge="1" parent="1">
          <mxGeometry width="50" height="50" relative="1" as="geometry">
            <mxPoint x="589.5" y="836" as="sourcePoint" />
            <mxPoint x="589.5" y="806" as="targetPoint" />
          </mxGeometry>
        </mxCell>
        <mxCell id="PwbdBzScDT-NYEQdXH_i-75" value="" style="endArrow=none;html=1;exitX=1;exitY=0.5;exitDx=0;exitDy=0;entryX=0;entryY=0.5;entryDx=0;entryDy=0;" edge="1" parent="1" source="PwbdBzScDT-NYEQdXH_i-64" target="PwbdBzScDT-NYEQdXH_i-68">
          <mxGeometry width="50" height="50" relative="1" as="geometry">
            <mxPoint x="480" y="680" as="sourcePoint" />
            <mxPoint x="530" y="630" as="targetPoint" />
          </mxGeometry>
        </mxCell>
        <mxCell id="PwbdBzScDT-NYEQdXH_i-76" value="" style="endArrow=none;html=1;exitX=1;exitY=0.5;exitDx=0;exitDy=0;entryX=0;entryY=0.5;entryDx=0;entryDy=0;" edge="1" parent="1" source="PwbdBzScDT-NYEQdXH_i-64" target="PwbdBzScDT-NYEQdXH_i-69">
          <mxGeometry width="50" height="50" relative="1" as="geometry">
            <mxPoint x="460" y="670" as="sourcePoint" />
            <mxPoint x="580" y="630" as="targetPoint" />
          </mxGeometry>
        </mxCell>
        <mxCell id="PwbdBzScDT-NYEQdXH_i-77" value="" style="endArrow=none;html=1;exitX=1;exitY=0.5;exitDx=0;exitDy=0;entryX=0;entryY=0.5;entryDx=0;entryDy=0;" edge="1" parent="1" source="PwbdBzScDT-NYEQdXH_i-64" target="PwbdBzScDT-NYEQdXH_i-70">
          <mxGeometry width="50" height="50" relative="1" as="geometry">
            <mxPoint x="460" y="670" as="sourcePoint" />
            <mxPoint x="580" y="710" as="targetPoint" />
          </mxGeometry>
        </mxCell>
        <mxCell id="PwbdBzScDT-NYEQdXH_i-78" value="" style="endArrow=none;html=1;exitX=1;exitY=0.5;exitDx=0;exitDy=0;entryX=0;entryY=0.5;entryDx=0;entryDy=0;" edge="1" parent="1" source="PwbdBzScDT-NYEQdXH_i-64" target="PwbdBzScDT-NYEQdXH_i-71">
          <mxGeometry width="50" height="50" relative="1" as="geometry">
            <mxPoint x="460" y="670" as="sourcePoint" />
            <mxPoint x="580" y="790" as="targetPoint" />
          </mxGeometry>
        </mxCell>
        <mxCell id="PwbdBzScDT-NYEQdXH_i-79" value="" style="endArrow=none;html=1;exitX=1;exitY=0.5;exitDx=0;exitDy=0;entryX=0;entryY=0.5;entryDx=0;entryDy=0;" edge="1" parent="1" source="PwbdBzScDT-NYEQdXH_i-64" target="PwbdBzScDT-NYEQdXH_i-72">
          <mxGeometry width="50" height="50" relative="1" as="geometry">
            <mxPoint x="460" y="670" as="sourcePoint" />
            <mxPoint x="580" y="870" as="targetPoint" />
          </mxGeometry>
        </mxCell>
        <mxCell id="PwbdBzScDT-NYEQdXH_i-80" value="" style="endArrow=none;html=1;exitX=1;exitY=0.5;exitDx=0;exitDy=0;entryX=0;entryY=0.5;entryDx=0;entryDy=0;" edge="1" parent="1" source="PwbdBzScDT-NYEQdXH_i-64" target="PwbdBzScDT-NYEQdXH_i-73">
          <mxGeometry width="50" height="50" relative="1" as="geometry">
            <mxPoint x="460" y="670" as="sourcePoint" />
            <mxPoint x="580" y="950" as="targetPoint" />
          </mxGeometry>
        </mxCell>
        <mxCell id="PwbdBzScDT-NYEQdXH_i-81" value="" style="endArrow=none;html=1;exitX=1;exitY=0.5;exitDx=0;exitDy=0;entryX=0;entryY=0.5;entryDx=0;entryDy=0;" edge="1" parent="1" source="PwbdBzScDT-NYEQdXH_i-63" target="PwbdBzScDT-NYEQdXH_i-69">
          <mxGeometry width="50" height="50" relative="1" as="geometry">
            <mxPoint x="460" y="670" as="sourcePoint" />
            <mxPoint x="580" y="1030" as="targetPoint" />
          </mxGeometry>
        </mxCell>
        <mxCell id="PwbdBzScDT-NYEQdXH_i-82" value="" style="endArrow=none;html=1;exitX=1;exitY=0.5;exitDx=0;exitDy=0;entryX=0;entryY=0.5;entryDx=0;entryDy=0;" edge="1" parent="1" source="PwbdBzScDT-NYEQdXH_i-65" target="PwbdBzScDT-NYEQdXH_i-69">
          <mxGeometry width="50" height="50" relative="1" as="geometry">
            <mxPoint x="460" y="750" as="sourcePoint" />
            <mxPoint x="580" y="710" as="targetPoint" />
          </mxGeometry>
        </mxCell>
        <mxCell id="PwbdBzScDT-NYEQdXH_i-83" value="" style="endArrow=none;html=1;exitX=1;exitY=0.5;exitDx=0;exitDy=0;entryX=0;entryY=0.5;entryDx=0;entryDy=0;" edge="1" parent="1" source="PwbdBzScDT-NYEQdXH_i-66" target="PwbdBzScDT-NYEQdXH_i-69">
          <mxGeometry width="50" height="50" relative="1" as="geometry">
            <mxPoint x="460" y="910" as="sourcePoint" />
            <mxPoint x="580" y="710" as="targetPoint" />
          </mxGeometry>
        </mxCell>
        <mxCell id="PwbdBzScDT-NYEQdXH_i-84" value="" style="endArrow=none;html=1;exitX=1;exitY=0.5;exitDx=0;exitDy=0;entryX=0;entryY=0.5;entryDx=0;entryDy=0;" edge="1" parent="1" source="PwbdBzScDT-NYEQdXH_i-63" target="PwbdBzScDT-NYEQdXH_i-70">
          <mxGeometry width="50" height="50" relative="1" as="geometry">
            <mxPoint x="460" y="990" as="sourcePoint" />
            <mxPoint x="580" y="710" as="targetPoint" />
          </mxGeometry>
        </mxCell>
        <mxCell id="PwbdBzScDT-NYEQdXH_i-85" value="" style="endArrow=none;html=1;exitX=1;exitY=0.5;exitDx=0;exitDy=0;entryX=0;entryY=0.5;entryDx=0;entryDy=0;" edge="1" parent="1" source="PwbdBzScDT-NYEQdXH_i-63" target="PwbdBzScDT-NYEQdXH_i-71">
          <mxGeometry width="50" height="50" relative="1" as="geometry">
            <mxPoint x="460" y="750" as="sourcePoint" />
            <mxPoint x="580" y="790" as="targetPoint" />
          </mxGeometry>
        </mxCell>
        <mxCell id="PwbdBzScDT-NYEQdXH_i-86" value="" style="endArrow=none;html=1;exitX=1;exitY=0.5;exitDx=0;exitDy=0;entryX=0;entryY=0.5;entryDx=0;entryDy=0;" edge="1" parent="1" source="PwbdBzScDT-NYEQdXH_i-63" target="PwbdBzScDT-NYEQdXH_i-72">
          <mxGeometry width="50" height="50" relative="1" as="geometry">
            <mxPoint x="460" y="750" as="sourcePoint" />
            <mxPoint x="580" y="870" as="targetPoint" />
          </mxGeometry>
        </mxCell>
        <mxCell id="PwbdBzScDT-NYEQdXH_i-87" value="" style="endArrow=none;html=1;exitX=1;exitY=0.5;exitDx=0;exitDy=0;entryX=0;entryY=0.5;entryDx=0;entryDy=0;" edge="1" parent="1" source="PwbdBzScDT-NYEQdXH_i-63" target="PwbdBzScDT-NYEQdXH_i-73">
          <mxGeometry width="50" height="50" relative="1" as="geometry">
            <mxPoint x="460" y="750" as="sourcePoint" />
            <mxPoint x="580" y="950" as="targetPoint" />
          </mxGeometry>
        </mxCell>
        <mxCell id="PwbdBzScDT-NYEQdXH_i-88" value="" style="endArrow=none;html=1;exitX=1;exitY=0.5;exitDx=0;exitDy=0;entryX=0;entryY=0.5;entryDx=0;entryDy=0;" edge="1" parent="1" source="PwbdBzScDT-NYEQdXH_i-65" target="PwbdBzScDT-NYEQdXH_i-70">
          <mxGeometry width="50" height="50" relative="1" as="geometry">
            <mxPoint x="460" y="750" as="sourcePoint" />
            <mxPoint x="580" y="1030" as="targetPoint" />
          </mxGeometry>
        </mxCell>
        <mxCell id="PwbdBzScDT-NYEQdXH_i-89" value="" style="endArrow=none;html=1;exitX=1;exitY=0.5;exitDx=0;exitDy=0;entryX=0;entryY=0.5;entryDx=0;entryDy=0;" edge="1" parent="1" source="PwbdBzScDT-NYEQdXH_i-66" target="PwbdBzScDT-NYEQdXH_i-70">
          <mxGeometry width="50" height="50" relative="1" as="geometry">
            <mxPoint x="460" y="910" as="sourcePoint" />
            <mxPoint x="580" y="790" as="targetPoint" />
          </mxGeometry>
        </mxCell>
        <mxCell id="PwbdBzScDT-NYEQdXH_i-90" value="" style="endArrow=none;html=1;exitX=1;exitY=0.5;exitDx=0;exitDy=0;entryX=0;entryY=0.5;entryDx=0;entryDy=0;" edge="1" parent="1" source="PwbdBzScDT-NYEQdXH_i-65" target="PwbdBzScDT-NYEQdXH_i-71">
          <mxGeometry width="50" height="50" relative="1" as="geometry">
            <mxPoint x="460" y="990" as="sourcePoint" />
            <mxPoint x="580" y="790" as="targetPoint" />
          </mxGeometry>
        </mxCell>
        <mxCell id="PwbdBzScDT-NYEQdXH_i-91" value="" style="endArrow=none;html=1;exitX=1;exitY=0.5;exitDx=0;exitDy=0;entryX=0;entryY=0.5;entryDx=0;entryDy=0;" edge="1" parent="1" source="PwbdBzScDT-NYEQdXH_i-65" target="PwbdBzScDT-NYEQdXH_i-72">
          <mxGeometry width="50" height="50" relative="1" as="geometry">
            <mxPoint x="460" y="910" as="sourcePoint" />
            <mxPoint x="580" y="870" as="targetPoint" />
          </mxGeometry>
        </mxCell>
        <mxCell id="PwbdBzScDT-NYEQdXH_i-92" value="" style="endArrow=none;html=1;exitX=1;exitY=0.5;exitDx=0;exitDy=0;entryX=0;entryY=0.5;entryDx=0;entryDy=0;" edge="1" parent="1" source="PwbdBzScDT-NYEQdXH_i-65" target="PwbdBzScDT-NYEQdXH_i-73">
          <mxGeometry width="50" height="50" relative="1" as="geometry">
            <mxPoint x="460" y="910" as="sourcePoint" />
            <mxPoint x="580" y="950" as="targetPoint" />
          </mxGeometry>
        </mxCell>
        <mxCell id="PwbdBzScDT-NYEQdXH_i-93" value="" style="endArrow=none;html=1;exitX=1;exitY=0.5;exitDx=0;exitDy=0;entryX=0;entryY=0.5;entryDx=0;entryDy=0;" edge="1" parent="1" source="PwbdBzScDT-NYEQdXH_i-66" target="PwbdBzScDT-NYEQdXH_i-71">
          <mxGeometry width="50" height="50" relative="1" as="geometry">
            <mxPoint x="460" y="910" as="sourcePoint" />
            <mxPoint x="580" y="1030" as="targetPoint" />
          </mxGeometry>
        </mxCell>
        <mxCell id="PwbdBzScDT-NYEQdXH_i-94" value="" style="endArrow=none;html=1;exitX=1;exitY=0.5;exitDx=0;exitDy=0;entryX=0;entryY=0.5;entryDx=0;entryDy=0;" edge="1" parent="1" source="PwbdBzScDT-NYEQdXH_i-66" target="PwbdBzScDT-NYEQdXH_i-72">
          <mxGeometry width="50" height="50" relative="1" as="geometry">
            <mxPoint x="460" y="990" as="sourcePoint" />
            <mxPoint x="580" y="870" as="targetPoint" />
          </mxGeometry>
        </mxCell>
        <mxCell id="PwbdBzScDT-NYEQdXH_i-95" value="" style="endArrow=none;html=1;exitX=1;exitY=0.5;exitDx=0;exitDy=0;entryX=0;entryY=0.5;entryDx=0;entryDy=0;" edge="1" parent="1" source="PwbdBzScDT-NYEQdXH_i-66" target="PwbdBzScDT-NYEQdXH_i-73">
          <mxGeometry width="50" height="50" relative="1" as="geometry">
            <mxPoint x="460" y="990" as="sourcePoint" />
            <mxPoint x="580" y="950" as="targetPoint" />
          </mxGeometry>
        </mxCell>
        <mxCell id="PwbdBzScDT-NYEQdXH_i-96" value="" style="endArrow=none;html=1;entryX=0;entryY=0.5;entryDx=0;entryDy=0;exitX=1;exitY=0.5;exitDx=0;exitDy=0;" edge="1" parent="1" source="PwbdBzScDT-NYEQdXH_i-63" target="PwbdBzScDT-NYEQdXH_i-68">
          <mxGeometry width="50" height="50" relative="1" as="geometry">
            <mxPoint x="530" y="670" as="sourcePoint" />
            <mxPoint x="580" y="630" as="targetPoint" />
          </mxGeometry>
        </mxCell>
        <mxCell id="PwbdBzScDT-NYEQdXH_i-97" value="" style="endArrow=none;html=1;entryX=0;entryY=0.5;entryDx=0;entryDy=0;exitX=1;exitY=0.5;exitDx=0;exitDy=0;" edge="1" parent="1" source="PwbdBzScDT-NYEQdXH_i-65" target="PwbdBzScDT-NYEQdXH_i-68">
          <mxGeometry width="50" height="50" relative="1" as="geometry">
            <mxPoint x="460" y="750" as="sourcePoint" />
            <mxPoint x="580" y="630" as="targetPoint" />
          </mxGeometry>
        </mxCell>
        <mxCell id="PwbdBzScDT-NYEQdXH_i-98" value="" style="endArrow=none;html=1;entryX=0;entryY=0.5;entryDx=0;entryDy=0;exitX=1;exitY=0.5;exitDx=0;exitDy=0;" edge="1" parent="1" source="PwbdBzScDT-NYEQdXH_i-66" target="PwbdBzScDT-NYEQdXH_i-68">
          <mxGeometry width="50" height="50" relative="1" as="geometry">
            <mxPoint x="460" y="910" as="sourcePoint" />
            <mxPoint x="580" y="630" as="targetPoint" />
          </mxGeometry>
        </mxCell>
        <mxCell id="PwbdBzScDT-NYEQdXH_i-99" value="" style="ellipse;whiteSpace=wrap;html=1;aspect=fixed;" vertex="1" parent="1">
          <mxGeometry x="730" y="800" width="40" height="40" as="geometry" />
        </mxCell>
        <mxCell id="PwbdBzScDT-NYEQdXH_i-100" value="" style="curved=1;endArrow=none;html=1;endFill=0;" edge="1" parent="1">
          <mxGeometry width="50" height="50" relative="1" as="geometry">
            <mxPoint x="580" y="630" as="sourcePoint" />
            <mxPoint x="600" y="610" as="targetPoint" />
            <Array as="points">
              <mxPoint x="590" y="630" />
              <mxPoint x="590" y="610" />
            </Array>
          </mxGeometry>
        </mxCell>
        <mxCell id="PwbdBzScDT-NYEQdXH_i-101" value="" style="curved=1;endArrow=none;html=1;endFill=0;" edge="1" parent="1">
          <mxGeometry width="50" height="50" relative="1" as="geometry">
            <mxPoint x="580" y="710" as="sourcePoint" />
            <mxPoint x="600" y="690" as="targetPoint" />
            <Array as="points">
              <mxPoint x="590" y="710" />
              <mxPoint x="590" y="690" />
            </Array>
          </mxGeometry>
        </mxCell>
        <mxCell id="PwbdBzScDT-NYEQdXH_i-102" value="" style="curved=1;endArrow=none;html=1;endFill=0;" edge="1" parent="1">
          <mxGeometry width="50" height="50" relative="1" as="geometry">
            <mxPoint x="580" y="790" as="sourcePoint" />
            <mxPoint x="600" y="770" as="targetPoint" />
            <Array as="points">
              <mxPoint x="590" y="790" />
              <mxPoint x="590" y="770" />
            </Array>
          </mxGeometry>
        </mxCell>
        <mxCell id="PwbdBzScDT-NYEQdXH_i-103" value="" style="curved=1;endArrow=none;html=1;endFill=0;" edge="1" parent="1">
          <mxGeometry width="50" height="50" relative="1" as="geometry">
            <mxPoint x="580" y="870" as="sourcePoint" />
            <mxPoint x="600" y="850" as="targetPoint" />
            <Array as="points">
              <mxPoint x="590" y="870" />
              <mxPoint x="590" y="850" />
            </Array>
          </mxGeometry>
        </mxCell>
        <mxCell id="PwbdBzScDT-NYEQdXH_i-104" value="" style="curved=1;endArrow=none;html=1;endFill=0;" edge="1" parent="1">
          <mxGeometry width="50" height="50" relative="1" as="geometry">
            <mxPoint x="580" y="950" as="sourcePoint" />
            <mxPoint x="600" y="930" as="targetPoint" />
            <Array as="points">
              <mxPoint x="590" y="950" />
              <mxPoint x="590" y="930" />
            </Array>
          </mxGeometry>
        </mxCell>
        <mxCell id="PwbdBzScDT-NYEQdXH_i-105" value="" style="curved=1;endArrow=none;html=1;endFill=0;" edge="1" parent="1">
          <mxGeometry width="50" height="50" relative="1" as="geometry">
            <mxPoint x="580" y="1030" as="sourcePoint" />
            <mxPoint x="600" y="1010" as="targetPoint" />
            <Array as="points">
              <mxPoint x="590" y="1030" />
              <mxPoint x="590" y="1010" />
            </Array>
          </mxGeometry>
        </mxCell>
        <mxCell id="PwbdBzScDT-NYEQdXH_i-106" value="" style="endArrow=none;html=1;entryX=0;entryY=0.5;entryDx=0;entryDy=0;exitX=1;exitY=0.5;exitDx=0;exitDy=0;" edge="1" parent="1" source="PwbdBzScDT-NYEQdXH_i-73" target="PwbdBzScDT-NYEQdXH_i-99">
          <mxGeometry width="50" height="50" relative="1" as="geometry">
            <mxPoint x="690" y="920" as="sourcePoint" />
            <mxPoint x="740" y="870" as="targetPoint" />
          </mxGeometry>
        </mxCell>
        <mxCell id="PwbdBzScDT-NYEQdXH_i-107" value="" style="endArrow=none;html=1;entryX=0;entryY=0.5;entryDx=0;entryDy=0;exitX=1;exitY=0.5;exitDx=0;exitDy=0;" edge="1" parent="1" source="PwbdBzScDT-NYEQdXH_i-72" target="PwbdBzScDT-NYEQdXH_i-99">
          <mxGeometry width="50" height="50" relative="1" as="geometry">
            <mxPoint x="620" y="1030" as="sourcePoint" />
            <mxPoint x="740" y="830" as="targetPoint" />
          </mxGeometry>
        </mxCell>
        <mxCell id="PwbdBzScDT-NYEQdXH_i-108" value="" style="endArrow=none;html=1;entryX=0;entryY=0.5;entryDx=0;entryDy=0;exitX=1;exitY=0.5;exitDx=0;exitDy=0;" edge="1" parent="1" source="PwbdBzScDT-NYEQdXH_i-71" target="PwbdBzScDT-NYEQdXH_i-99">
          <mxGeometry width="50" height="50" relative="1" as="geometry">
            <mxPoint x="620" y="950" as="sourcePoint" />
            <mxPoint x="740" y="830" as="targetPoint" />
          </mxGeometry>
        </mxCell>
        <mxCell id="PwbdBzScDT-NYEQdXH_i-109" value="" style="endArrow=none;html=1;entryX=0;entryY=0.5;entryDx=0;entryDy=0;exitX=1;exitY=0.5;exitDx=0;exitDy=0;" edge="1" parent="1" source="PwbdBzScDT-NYEQdXH_i-70" target="PwbdBzScDT-NYEQdXH_i-99">
          <mxGeometry width="50" height="50" relative="1" as="geometry">
            <mxPoint x="620" y="870" as="sourcePoint" />
            <mxPoint x="740" y="830" as="targetPoint" />
          </mxGeometry>
        </mxCell>
        <mxCell id="PwbdBzScDT-NYEQdXH_i-110" value="" style="endArrow=none;html=1;entryX=0;entryY=0.5;entryDx=0;entryDy=0;exitX=1;exitY=0.5;exitDx=0;exitDy=0;" edge="1" parent="1" source="PwbdBzScDT-NYEQdXH_i-69" target="PwbdBzScDT-NYEQdXH_i-99">
          <mxGeometry width="50" height="50" relative="1" as="geometry">
            <mxPoint x="620" y="790" as="sourcePoint" />
            <mxPoint x="740" y="830" as="targetPoint" />
          </mxGeometry>
        </mxCell>
        <mxCell id="PwbdBzScDT-NYEQdXH_i-111" value="" style="endArrow=none;html=1;entryX=0;entryY=0.5;entryDx=0;entryDy=0;exitX=1;exitY=0.5;exitDx=0;exitDy=0;" edge="1" parent="1" source="PwbdBzScDT-NYEQdXH_i-68" target="PwbdBzScDT-NYEQdXH_i-99">
          <mxGeometry width="50" height="50" relative="1" as="geometry">
            <mxPoint x="620" y="710" as="sourcePoint" />
            <mxPoint x="740" y="830" as="targetPoint" />
          </mxGeometry>
        </mxCell>
        <mxCell id="PwbdBzScDT-NYEQdXH_i-112" value="" style="endArrow=none;html=1;exitX=1;exitY=0.5;exitDx=0;exitDy=0;" edge="1" parent="1" source="PwbdBzScDT-NYEQdXH_i-99">
          <mxGeometry width="50" height="50" relative="1" as="geometry">
            <mxPoint x="810" y="830" as="sourcePoint" />
            <mxPoint x="810" y="820" as="targetPoint" />
          </mxGeometry>
        </mxCell>
        <mxCell id="PwbdBzScDT-NYEQdXH_i-113" value="" style="endArrow=none;html=1;entryX=0;entryY=0.5;entryDx=0;entryDy=0;" edge="1" parent="1" target="PwbdBzScDT-NYEQdXH_i-64">
          <mxGeometry width="50" height="50" relative="1" as="geometry">
            <mxPoint x="330" y="660" as="sourcePoint" />
            <mxPoint x="390" y="659.5" as="targetPoint" />
          </mxGeometry>
        </mxCell>
        <mxCell id="PwbdBzScDT-NYEQdXH_i-114" value="" style="endArrow=none;html=1;entryX=0;entryY=0.5;entryDx=0;entryDy=0;" edge="1" parent="1" target="PwbdBzScDT-NYEQdXH_i-63">
          <mxGeometry width="50" height="50" relative="1" as="geometry">
            <mxPoint x="330" y="740" as="sourcePoint" />
            <mxPoint x="400" y="739.5" as="targetPoint" />
          </mxGeometry>
        </mxCell>
        <mxCell id="PwbdBzScDT-NYEQdXH_i-115" value="" style="endArrow=none;html=1;entryX=0;entryY=0.5;entryDx=0;entryDy=0;" edge="1" parent="1" target="PwbdBzScDT-NYEQdXH_i-65">
          <mxGeometry width="50" height="50" relative="1" as="geometry">
            <mxPoint x="330" y="900" as="sourcePoint" />
            <mxPoint x="400" y="899.5" as="targetPoint" />
          </mxGeometry>
        </mxCell>
        <mxCell id="PwbdBzScDT-NYEQdXH_i-116" value="" style="endArrow=none;html=1;entryX=0;entryY=0.5;entryDx=0;entryDy=0;" edge="1" parent="1" target="PwbdBzScDT-NYEQdXH_i-66">
          <mxGeometry width="50" height="50" relative="1" as="geometry">
            <mxPoint x="330" y="980" as="sourcePoint" />
            <mxPoint x="400" y="979.5" as="targetPoint" />
          </mxGeometry>
        </mxCell>
        <mxCell id="PwbdBzScDT-NYEQdXH_i-117" value="" style="endArrow=none;html=1;" edge="1" parent="1">
          <mxGeometry width="50" height="50" relative="1" as="geometry">
            <mxPoint x="790" y="1080" as="sourcePoint" />
            <mxPoint x="790" y="820" as="targetPoint" />
          </mxGeometry>
        </mxCell>
        <mxCell id="PwbdBzScDT-NYEQdXH_i-118" value="" style="endArrow=none;html=1;" edge="1" parent="1">
          <mxGeometry width="50" height="50" relative="1" as="geometry">
            <mxPoint x="370" y="1080" as="sourcePoint" />
            <mxPoint x="790" y="1080" as="targetPoint" />
          </mxGeometry>
        </mxCell>
        <mxCell id="PwbdBzScDT-NYEQdXH_i-119" value="" style="endArrow=classic;html=1;endFill=1;" edge="1" parent="1">
          <mxGeometry width="50" height="50" relative="1" as="geometry">
            <mxPoint x="370" y="1080" as="sourcePoint" />
            <mxPoint x="370" y="980" as="targetPoint" />
          </mxGeometry>
        </mxCell>
        <mxCell id="PwbdBzScDT-NYEQdXH_i-120" value="&lt;div&gt;[i&lt;sub&gt;1&lt;/sub&gt;~(t+1), i&lt;sub&gt;2&lt;/sub&gt;~(t+1), i&lt;sub&gt;3&lt;/sub&gt;~(t+1)]&lt;/div&gt;" style="text;html=1;strokeColor=none;fillColor=none;align=center;verticalAlign=middle;whiteSpace=wrap;rounded=0;" vertex="1" parent="1">
          <mxGeometry x="490" y="370" width="170" height="20" as="geometry" />
        </mxCell>
        <mxCell id="PwbdBzScDT-NYEQdXH_i-121" value="" style="endArrow=classic;html=1;" edge="1" parent="1">
          <mxGeometry width="50" height="50" relative="1" as="geometry">
            <mxPoint x="380" y="980" as="sourcePoint" />
            <mxPoint x="380" y="900" as="targetPoint" />
          </mxGeometry>
        </mxCell>
        <mxCell id="PwbdBzScDT-NYEQdXH_i-122" value="" style="endArrow=classic;html=1;" edge="1" parent="1">
          <mxGeometry width="50" height="50" relative="1" as="geometry">
            <mxPoint x="360" y="900" as="sourcePoint" />
            <mxPoint x="360" y="870" as="targetPoint" />
          </mxGeometry>
        </mxCell>
        <mxCell id="PwbdBzScDT-NYEQdXH_i-123" value="" style="endArrow=classic;html=1;" edge="1" parent="1">
          <mxGeometry width="50" height="50" relative="1" as="geometry">
            <mxPoint x="360" y="770" as="sourcePoint" />
            <mxPoint x="360" y="740" as="targetPoint" />
          </mxGeometry>
        </mxCell>
        <mxCell id="PwbdBzScDT-NYEQdXH_i-124" value="" style="endArrow=classic;html=1;" edge="1" parent="1">
          <mxGeometry width="50" height="50" relative="1" as="geometry">
            <mxPoint x="380" y="740" as="sourcePoint" />
            <mxPoint x="380" y="660" as="targetPoint" />
          </mxGeometry>
        </mxCell>
        <mxCell id="PwbdBzScDT-NYEQdXH_i-125" value="i~(t+1)" style="text;html=1;strokeColor=none;fillColor=none;align=center;verticalAlign=middle;whiteSpace=wrap;rounded=0;" vertex="1" parent="1">
          <mxGeometry x="320" y="1020" width="40" height="20" as="geometry" />
        </mxCell>
        <mxCell id="PwbdBzScDT-NYEQdXH_i-126" value="&lt;div&gt;i~(t)&lt;/div&gt;" style="text;html=1;strokeColor=none;fillColor=none;align=center;verticalAlign=middle;whiteSpace=wrap;rounded=0;" vertex="1" parent="1">
          <mxGeometry x="330" y="930" width="40" height="20" as="geometry" />
        </mxCell>
        <mxCell id="PwbdBzScDT-NYEQdXH_i-127" value="&lt;div&gt;i~(t-1)&lt;/div&gt;" style="text;html=1;strokeColor=none;fillColor=none;align=center;verticalAlign=middle;whiteSpace=wrap;rounded=0;" vertex="1" parent="1">
          <mxGeometry x="320" y="870" width="40" height="20" as="geometry" />
        </mxCell>
        <mxCell id="PwbdBzScDT-NYEQdXH_i-128" value="&lt;div&gt;i~(t-m+2)&lt;/div&gt;" style="text;html=1;strokeColor=none;fillColor=none;align=center;verticalAlign=middle;whiteSpace=wrap;rounded=0;" vertex="1" parent="1">
          <mxGeometry x="300" y="750" width="60" height="20" as="geometry" />
        </mxCell>
        <mxCell id="PwbdBzScDT-NYEQdXH_i-129" value="&lt;div&gt;i~(t-m+1)&lt;/div&gt;" style="text;html=1;strokeColor=none;fillColor=none;align=center;verticalAlign=middle;whiteSpace=wrap;rounded=0;" vertex="1" parent="1">
          <mxGeometry x="310" y="680" width="60" height="20" as="geometry" />
        </mxCell>
        <mxCell id="PwbdBzScDT-NYEQdXH_i-131" value="e(t-m+1)" style="text;html=1;strokeColor=none;fillColor=none;align=center;verticalAlign=middle;whiteSpace=wrap;rounded=0;" vertex="1" parent="1">
          <mxGeometry x="260" y="650" width="50" height="20" as="geometry" />
        </mxCell>
        <mxCell id="PwbdBzScDT-NYEQdXH_i-132" value="e(t-m+2)" style="text;html=1;strokeColor=none;fillColor=none;align=center;verticalAlign=middle;whiteSpace=wrap;rounded=0;" vertex="1" parent="1">
          <mxGeometry x="260" y="730" width="50" height="20" as="geometry" />
        </mxCell>
        <mxCell id="PwbdBzScDT-NYEQdXH_i-133" value="e(t)" style="text;html=1;strokeColor=none;fillColor=none;align=center;verticalAlign=middle;whiteSpace=wrap;rounded=0;" vertex="1" parent="1">
          <mxGeometry x="270" y="890" width="50" height="20" as="geometry" />
        </mxCell>
        <mxCell id="PwbdBzScDT-NYEQdXH_i-134" value="e(t+1)" style="text;html=1;strokeColor=none;fillColor=none;align=center;verticalAlign=middle;whiteSpace=wrap;rounded=0;" vertex="1" parent="1">
          <mxGeometry x="270" y="970" width="50" height="20" as="geometry" />
        </mxCell>
        <mxCell id="PwbdBzScDT-NYEQdXH_i-136" value="i~(t+1)" style="text;html=1;strokeColor=none;fillColor=none;align=center;verticalAlign=middle;whiteSpace=wrap;rounded=0;" vertex="1" parent="1">
          <mxGeometry x="810" y="810" width="40" height="20" as="geometry" />
        </mxCell>
        <mxCell id="PwbdBzScDT-NYEQdXH_i-137" value="&lt;b&gt;N = 95&lt;br&gt;&lt;/b&gt;" style="text;html=1;align=center;verticalAlign=middle;resizable=0;points=[];autosize=1;strokeColor=none;" vertex="1" parent="1">
          <mxGeometry x="565" y="560" width="50" height="20" as="geometry" />
        </mxCell>
        <mxCell id="PwbdBzScDT-NYEQdXH_i-138" value="&lt;b&gt;N = (m x 9)&lt;br&gt;&lt;/b&gt;" style="text;html=1;align=center;verticalAlign=middle;resizable=0;points=[];autosize=1;strokeColor=none;" vertex="1" parent="1">
          <mxGeometry x="390" y="610" width="80" height="20" as="geometry" />
        </mxCell>
        <mxCell id="PwbdBzScDT-NYEQdXH_i-139" value="&lt;b&gt;N = 1&lt;br&gt;&lt;/b&gt;" style="text;html=1;align=center;verticalAlign=middle;resizable=0;points=[];autosize=1;strokeColor=none;" vertex="1" parent="1">
          <mxGeometry x="730" y="760" width="40" height="20" as="geometry" />
        </mxCell>
        <mxCell id="PwbdBzScDT-NYEQdXH_i-140" value="" style="curved=1;endArrow=none;html=1;endFill=0;" edge="1" parent="1">
          <mxGeometry width="50" height="50" relative="1" as="geometry">
            <mxPoint x="700" y="630" as="sourcePoint" />
            <mxPoint x="720" y="610" as="targetPoint" />
            <Array as="points">
              <mxPoint x="710" y="630" />
              <mxPoint x="710" y="610" />
            </Array>
          </mxGeometry>
        </mxCell>
        <mxCell id="PwbdBzScDT-NYEQdXH_i-141" value="Tanh" style="text;html=1;align=center;verticalAlign=middle;resizable=0;points=[];autosize=1;strokeColor=none;" vertex="1" parent="1">
          <mxGeometry x="720" y="610" width="40" height="20" as="geometry" />
        </mxCell>
        <mxCell id="PwbdBzScDT-NYEQdXH_i-143" value="&lt;div&gt;[e&lt;sub&gt;1&lt;/sub&gt;~(t+1), e&lt;sub&gt;2&lt;/sub&gt;~(t+1), e&lt;sub&gt;3&lt;/sub&gt;~(t+1)]&lt;/div&gt;" style="text;html=1;strokeColor=none;fillColor=none;align=center;verticalAlign=middle;whiteSpace=wrap;rounded=0;" vertex="1" parent="1">
          <mxGeometry x="490" y="310" width="170" height="20" as="geometry" />
        </mxCell>
        <mxCell id="PwbdBzScDT-NYEQdXH_i-144" value="&lt;b&gt;Labels&lt;/b&gt;" style="text;html=1;strokeColor=none;fillColor=none;align=center;verticalAlign=middle;whiteSpace=wrap;rounded=0;" vertex="1" parent="1">
          <mxGeometry x="550" y="290" width="40" height="20" as="geometry" />
        </mxCell>
        <mxCell id="PwbdBzScDT-NYEQdXH_i-145" value="&lt;b&gt;Output&lt;/b&gt;" style="text;html=1;strokeColor=none;fillColor=none;align=center;verticalAlign=middle;whiteSpace=wrap;rounded=0;" vertex="1" parent="1">
          <mxGeometry x="550" y="350" width="40" height="20" as="geometry" />
        </mxCell>
        <mxCell id="PwbdBzScDT-NYEQdXH_i-147" value="e(t-m)" style="text;html=1;strokeColor=none;fillColor=none;align=center;verticalAlign=middle;whiteSpace=wrap;rounded=0;" vertex="1" parent="1">
          <mxGeometry y="210" width="50" height="20" as="geometry" />
        </mxCell>
        <mxCell id="PwbdBzScDT-NYEQdXH_i-148" value="e(t-m+1)" style="text;html=1;strokeColor=none;fillColor=none;align=center;verticalAlign=middle;whiteSpace=wrap;rounded=0;" vertex="1" parent="1">
          <mxGeometry y="290" width="50" height="20" as="geometry" />
        </mxCell>
        <mxCell id="PwbdBzScDT-NYEQdXH_i-149" value="e(t-1)" style="text;html=1;strokeColor=none;fillColor=none;align=center;verticalAlign=middle;whiteSpace=wrap;rounded=0;" vertex="1" parent="1">
          <mxGeometry y="450" width="50" height="20" as="geometry" />
        </mxCell>
        <mxCell id="PwbdBzScDT-NYEQdXH_i-150" value="e(t)" style="text;html=1;strokeColor=none;fillColor=none;align=center;verticalAlign=middle;whiteSpace=wrap;rounded=0;" vertex="1" parent="1">
          <mxGeometry y="530" width="50" height="20" as="geometry" />
        </mxCell>
        <mxCell id="PwbdBzScDT-NYEQdXH_i-151" value="&lt;font style=&quot;font-size: 48px&quot;&gt;&lt;b&gt;Training&lt;/b&gt;&lt;/font&gt;" style="text;html=1;align=center;verticalAlign=middle;resizable=0;points=[];autosize=1;strokeColor=none;" vertex="1" parent="1">
          <mxGeometry x="400" y="165" width="200" height="30" as="geometry" />
        </mxCell>
        <mxCell id="PwbdBzScDT-NYEQdXH_i-152" value="&lt;div align=&quot;center&quot;&gt;&lt;font style=&quot;font-size: 48px&quot;&gt;&lt;b&gt;Feedback Loop&lt;/b&gt;&lt;/font&gt;&lt;/div&gt;" style="text;whiteSpace=wrap;html=1;align=center;" vertex="1" parent="1">
          <mxGeometry x="70" y="770" width="210" height="40" as="geometry" />
        </mxCell>
      </root>
    </mxGraphModel>
  </diagram>
</mxfile>
